<?xml version="1.0" encoding="UTF-8"?><svg id="_レイヤー_3" xmlns="http://www.w3.org/2000/svg" xmlns:xlink="http://www.w3.org/1999/xlink" viewBox="0 0 841.89 595.28"><defs><style>.cls-1{fill:#399;}.cls-2{fill:#fff;}.cls-3{fill:none;}.cls-4{clip-path:url(#clippath-1);}.cls-5{fill:#222;}.cls-6{fill:#191919;}.cls-7{fill:#036;}.cls-8{fill:#339;}.cls-9{clip-path:url(#clippath);}</style><clipPath id="clippath"><path class="cls-3" d="M203.33,357.85l-78.64,14.46c-7.96-50.09-19.2-125.45-29.9-184.42,32.49-6.39,57.74-11.76,85.78-18.3,5.68,67.4,14.85,130.19,22.76,188.26ZM373.66,335.56c3.26-25.82-14.57-40.94-31.24-53.06-14.8-10.69-24.91-17.93-23.96-25.44,1.16-9.15,10.71-11.76,20.3-10.55,10.6,1.34,20.43,4.73,28.46,8.12l.21-40.27c-5.18-1.61-25.1-6.27-49.33-9.33-46.94-5.93-81.01,8.13-85.37,42.63-2.79,22.06,10.52,38.52,27.03,49.91,24.52,16.93,28.37,20.99,27.24,29.91-1.27,10.09-10.58,12.73-26.48,10.72-13.37-1.69-31.94-6.9-42.42-13.23l-1.12,41.35c16.43,5.89,43.55,12.42,63.24,14.9,49.96,6.31,88.49-6.47,93.44-45.66ZM440.74,285.71c10.91-51.16,19.23-103.65,30.45-151.14l-58.93-6.85-35.3,195.19s80.85,14.63,120.48,21.37l12.83-51.04c-23.04-1.51-54.57-4.56-69.54-7.53ZM199.26,406.05c-.02-.06-.04-.12-.07-.18-.92-2.34-2.69-5.88-5.96-8.74.04-5.03-.34-7.22-.32-7.36q-.02-.06-.04-.12c-.15-.43-.53-.7-1-.66l-9.41.61c-.53.06-.94.48-.9.95.02.06-.04.84-.03,2-2.74-.1-5.78.11-9.32,1.06-.18-.69-.4-1.29-.62-1.9,8.94-3.25,10.38-3.85,18.41-7.12.49-.18.79-.7.59-1.24l-2.34-6.42c-.18-.48-.76-.75-1.25-.58-8.19,2.64-9.72,3.19-18.62,6.37-.55-1.51-.94-2.4-.97-2.46-.18-.48-.68-.71-1.23-.51l-14.45,5.26c-.49.18-.79.7-.61,1.18.02.06.35.97.87,2.57-2.67,1.04-4.61,1.82-8.42,3.34l-1.94.77c-.49.18-.76.76-.59,1.24l2.34,6.42c.2.55.76.75,1.25.58l2-.59c3.9-1.28,5.94-1.96,8.66-2.88.41.95.81,2.04,1.27,3.11-2.77,2.11-4.81,4.5-6.12,7.17-2.08,4.39-2.14,9.36-.18,14.75,3.64,10,12.91,14.31,23.11,10.74,8.65-3.08,13.52-7.6,16.21-13.18.54,2.62.69,4.76.71,4.82-.04.08-.02.15.03.27.04.12.17.28.36.42.19.14.5.23.74.14l9.69-1.95c.39-.07.73-.47.78-.9,0-.41.21-9.14-2.64-16.95ZM158.4,417.64c0-.71.6-2.25,1.02-3.22.2-.46.36-.94.45-1.44.19-1.02.68-1.77.97-2.2,1.41,3.12,2.39,5.03,2.41,5.09.22.4,1.45,2.16,1.95,1.98l11.42-3.08c-1.35,4.75-7.37,8.21-11.17,9-5.14,1.06-7.04-4.36-7.04-6.12ZM177.95,411.68c-.3-1.2-1.88-5.35-2.69-8.15,1.78-.24,3.29-.1,4.54.27-.67,2.16-.7,6.08-1.85,7.87ZM248.61,432.68l-9.92-2.35c-.21-.08-.46-.06-.61.03-.22.12-.34.29-.35.49-.03.09-1.79,9.98-3.68,16.41-1.89,6.43-5.52,16.36-5.55,16.45-.13.37.13.82.55.98l8.87,3.46c.37.14.82.04,1.01-.3.02-.05,4.28-7.26,7.15-16.58,2.82-9.35,3.23-17.66,3.21-17.77,0-.36-.28-.72-.67-.81ZM224.22,425l-13.29-5.97c-.3-.16-.74-.12-.96.17-.27.26-6.31,6.92-10.17,18.83-3.69,11.45-1.44,18.16,7.09,21.24,7.38,2.61,13.31,2.26,13.55,2.24.37-.02.64-.28.69-.57l2.58-14.03c.06-.34-.16-.73-.53-.87-.05-.02-1.85-.68-3.23-2.17-.9-1-1.66-2.37.26-7.24,1.6-4.11,4.4-10.57,4.48-10.64.13-.36-.07-.8-.48-1ZM396.75,402.06c-.17-.05-5.31-.55-15.96,1.43-9.6,1.68-16.04,4.08-16.1,4.18-.44.17-.75.76-.73,1.46l.56,9.57c.02.79.42,1.24.86,1.15.11-.02,8.55-1.92,15.8-2.98,7.25-.97,14.98-.97,15.03-.98.22.05.44-.17.6-.38.16-.29.26-.58.3-.94l.39-11.24c-.02-.7-.31-1.26-.75-1.26ZM285.83,392.3c-.17-.05-5.31-.55-15.96,1.43-9.6,1.68-16.04,4.08-16.1,4.18-.44.17-.75.76-.73,1.46l.56,9.57c.02.79.42,1.24.86,1.15.11-.02,8.55-1.92,15.8-2.98,7.25-.97,14.98-.97,15.03-.98.22.05.44-.17.6-.38.16-.29.26-.58.3-.94l.39-11.24c-.02-.7-.31-1.26-.75-1.26ZM308.33,436.2c-.12-.33-.43-.48-.72-.57-.29-.09-.63-.04-.88.15,0,0-1.24.96-2.61,1.12-1.09.18-1.87.1-2.82-1.4-.87-1.44-1.16-3.61-1.17-3.68-.08-.47-.56-.88-1.05-.86-.14.02-2.57.08-5.66.8-.2.03-.46.15-.74.19,3.18-3.57,6.98-9.31,5.93-15.64-.02-.14-.04-.27-.07-.4-1.25-6.29-10.29-8.19-26.84-5.59-12.33,1.9-21.68,5.31-21.75,5.32-.52.22-.8.68-.64,1.21l2.72,10.54c.16.53.7.85,1.24.76,0,0,3.98-.87,7.18-1.33h.07c4.42-.74,7.58-1.06,8.05.94.38,1.87-2.08,5.6-6.28,9.33-3.91,3.41-8.35,6.08-8.41,6.16-.51.29-.63.86-.41,1.31l6.08,11.44c.21.45.74.64,1.21.56.26-.11,5.72-1.71,9.62-3.46,3.52-1.55,7.34-4.19,7.77-4.53.39-.2,2.85-1.37,5.06-1.94,1.46-.45,3.03-.71,3.92-.79.39.7.97,1.64,1.85,2.32,2.15,1.58,4.68,2.96,11.61,1.81,7.82-1.29,10.5-6.23,10.6-6.45.16-.3.17-.65.06-.91l-2.95-6.43ZM362.65,395.84c-.09-.2-.31-.35-.56-.39-.06,0-1.26-.26-3.36-.71.08-2.13.1-3.42.11-3.48.01-.49-.36-.85-.78-.92l-18.85-2.26c-.48-.08-.91.29-.99.77,0,.06-.14.9-.28,2.22-13.18-2.06-23.68-3.08-23.8-3.1-.24-.04-.5.04-.65.2-.21.15-.31.38-.35.62l-.7,7.68c-.07.48.29.9.78.98.12.02,11.84,1.54,23.45,3.35-.14.9-.28,1.8-.37,2.76-1.89-.97-4.13-1.75-6.61-2.13-8.29-1.29-17.41,2.38-18.88,11.84-1.5,9.64,3.34,16.71,12.69,18.35,2.95.52,5.52.37,7.7-.09-.45,2.08-.77,3.37-.78,3.43-.04.24.05.5.14.7.15.21.38.37.62.4l17.44,3.39c.42.07.89-.17,1.02-.58.07-.05,3.15-7.85,6.31-21.4,1-4.44,1.65-9.01,2.1-13.1,1.26.26,1.99.37,2.05.38.48.07.96-.22,1.04-.7l1.67-7.53c.04-.24.01-.49-.14-.7ZM332.13,417.31c-.3,1.64-1.19,3.16-2.6,4.05-.88.56-1.86.87-2.91.7-3.64-.57-5.2-4.36-4.83-7.71.23-2.38,1.44-4.6,3.19-5.75.99-.84,2.18-1.08,3.3-.91,2.05.42,3.27,1.6,3.98,2.9.54,1,.69,2.18.49,3.31s-.43,2.27-.63,3.41ZM420.6,443.34c-.17-.31-.5-.43-.8-.47-.31-.05-.64.06-.87.27,0,0-1.1,1.15-2.45,1.5-1.06.34-1.86.37-3.02-1.01-1.07-1.33-1.67-3.48-1.69-3.54-.14-.46-.69-.8-1.17-.72-.13.04-2.56.44-5.55,1.61-.2.06-.44.21-.71.3,2.68-4.05,5.66-10.38,3.72-16.6-.04-.13-.08-.27-.12-.4-2.14-6.16-11.46-6.78-27.64-1.81-12.06,3.67-20.94,8.45-21.01,8.47-.49.3-.7.8-.47,1.31l4.21,10.24c.23.51.82.76,1.35.59,0,0,3.86-1.44,7-2.36l.07-.02c4.32-1.37,7.44-2.13,8.19-.19.65,1.83-1.28,5.94-4.96,10.3-3.43,4-7.5,7.32-7.54,7.41-.47.37-.5.96-.22,1.38l7.7,10.66c.28.42.82.54,1.29.39.25-.15,5.49-2.54,9.14-4.86,3.3-2.06,6.75-5.26,7.13-5.68.36-.26,2.65-1.79,4.78-2.68,1.4-.66,2.93-1.14,3.81-1.35.49.65,1.2,1.51,2.18,2.08,2.37,1.29,5.1,2.32,11.88.17,7.64-2.42,9.62-7.77,9.69-8.01.12-.33.08-.68-.07-.92l-3.86-6.05ZM437.42,363.19c-10.12-3.67-17.72-5.08-20.95-5.63l-1.54-.31.12.04c-.24-.08-.63-.15-.88-.03-.25.12-.51.3-.55.63l-1.84,6.9c-.18.55.12,1.06.64,1.16.06.02,5.92,1.72,9.54,2.94l.78.33c1.97.66,8.03,2.77,7.78,3.91-.31.91-5.43,1.9-11.73,1.94-.41,0-.84.26-.96.62l-1.66,4.93c-.12.37.02.75.26,1.04,1.29,1.25,2.85,2.92,4.1,4.69-6-2.08-11.39-2.14-15.3-.27-2.38,1.16-4.11,3.08-4.95,5.58-1.25,3.71-1.84,13.2,19.48,20.37,14.87,5,24.43,2.19,28.43-8.45.08-.24.14-.43.21-.61,2.21-6.57-.27-11.6-1.62-13.68,1.8-.88,5.16-3.14,6.9-8.31.04-.12.08-.24.12-.36,2.89-9.19-7.97-14.33-16.37-17.43ZM415.96,400.48c-5.55-1.97-4.52-5.21-4.2-6.2.54-1.69,3.47-2.85,7.4-1.46,1.05.37,2.01.89,2.87,1.51,2.41,1.72,1.98,5.49-.82,6.47-1.53.54-3.22.4-5.26-.32ZM485.41,362.45l-18.45-2.4c-.38-.05-.78.41-.86.99,0,.07-1.39,9.15-2.59,20.66-1.15,11.45-1.97,20.38-1.98,20.45-.08.58.2,1.05.59,1.1l16.87,2.2c.38.05.77-.34.85-.92,0-.07,1.55-8.91,3.37-20.27,1.78-11.44,2.78-20.57,2.79-20.64.08-.58-.2-1.13-.58-1.18ZM479.37,408.65c.02-.59-.23-.98-.61-1.02l-16.76-1.9c-.38-.04-.76.28-.83.86l-1.01,5.89c-.53,3.38-.73,6-.74,6.14-.06.51.22,1.05.6,1.1l17.52,1.99c.38.04.77-.35.84-.93.02-.14.41-2.74.65-6.16l.34-5.97ZM664.8,245.76c-72.13-14.54-141.28,26.64-154.44,91.98-13.17,65.33,34.63,130.08,106.76,144.61,72.13,14.54,141.28-26.64,154.44-91.97,13.17-65.33-34.63-130.08-106.76-144.61ZM534.69,342.11c5.17-25.66,21.47-46.57,43.73-59.79,4.78,14.72,8.98,35.83,5.37,60.42-4.91,33.45-21.87,56.93-33.27,69.6-14.46-20.47-20.85-45.32-15.83-70.22ZM622.66,458.08c-20.72-4.18-39.01-13.29-53.58-25.59,5.11-5.55,10.91-12.52,16.46-20.84,4.66,7.48,14.47,19.96,36.35,33.15,2.01,1.21,4.38,1.69,6.7,1.37,25.89-3.55,42.07-13.41,47.66-17.53,1.5,10.42,3.64,19.39,5.83,26.56-18.23,5.72-38.65,7.05-59.41,2.87ZM598.43,387.83c4.24-10.03,7.55-21.23,9.08-33.54.57-4.57.96-9.04,1.23-13.4l50.85,69.21c-6.73,5.43-15.52,10.1-26.73,11.64-2.32.32-4.69-.16-6.7-1.37-14.75-8.89-22.9-21.57-27.73-32.54ZM675.8,373.51c-.66,5.31-1.1,10.48-1.36,15.5l-52.72-71.76c6.84-5.75,15.92-10.79,27.64-12.4,2.32-.32,4.69.16,6.7,1.37,15.65,9.43,23.87,23.13,28.57,34.53-4.11,9.81-7.33,20.74-8.83,32.76ZM660.34,281.79c-2.01-1.21-4.38-1.69-6.7-1.37-24.68,3.38-40.54,12.51-46.81,16.92-1.47-9.74-3.48-18.23-5.57-25.19,18.24-5.73,38.67-7.07,59.44-2.88,20.93,4.22,39.37,13.47,54.02,25.97-5.16,5.53-11.21,12.68-17.03,21.37-4.2-7.19-13.77-20.59-37.35-34.81ZM748.68,385.23c-5.22,25.93-21.81,47.02-44.42,60.21-4.79-14.42-9.26-35.73-5.57-60.7,5.08-34.44,23.02-58.09,33.99-69.97,14.58,20.52,21.04,45.46,16,70.46Z"/></clipPath><clipPath id="clippath-1"><rect class="cls-3" x="517.69" y="95.49" width="185.19" height="135.09" rx="12" ry="12" transform="translate(-15.14 74.29) rotate(-6.88)"/></clipPath></defs><path d="M184.35,181.72c-28.04,6.53-53.29,11.9-85.78,18.3,10.7,58.97,21.93,134.33,29.9,184.42l78.64-14.46c-7.91-58.08-17.08-120.86-22.76-188.26Z"/><path d="M377.43,347.7c3.26-25.82-14.57-40.94-31.24-53.06-14.8-10.69-24.91-17.93-23.96-25.44,1.16-9.15,10.71-11.76,20.3-10.55,10.6,1.34,20.43,4.72,28.46,8.12l.21-40.27c-5.18-1.61-25.1-6.27-49.33-9.33-46.94-5.93-81.01,8.13-85.37,42.63-2.79,22.06,10.52,38.52,27.03,49.91,24.52,16.93,28.37,20.99,27.24,29.91-1.27,10.09-10.58,12.73-26.48,10.72-13.37-1.69-31.94-6.89-42.43-13.23l-1.12,41.35c16.43,5.89,43.55,12.42,63.24,14.9,49.96,6.31,88.49-6.47,93.44-45.66Z"/><path d="M456.72,300.95c10.91-51.16,24.17-106.3,35.39-153.79l-76.08-7.3-35.3,195.19s80.85,14.63,120.48,21.37l23.12-47.35c-23.04-1.51-52.65-5.15-67.62-8.12Z"/><path d="M202.31,442.64c0-.39.2-8.74-2.52-16.22-.02-.06-.04-.12-.06-.17-.88-2.24-2.58-5.63-5.7-8.36.04-4.81-.33-6.91-.31-7.04q-.02-.06-.04-.12c-.15-.41-.51-.67-.96-.64l-9,.58c-.51.05-.89.46-.86.91.02.06-.04.8-.03,1.92-2.62-.1-5.53.11-8.92,1.01-.17-.66-.38-1.24-.6-1.82,8.55-3.11,9.93-3.68,17.61-6.81.47-.17.75-.67.56-1.19l-2.24-6.14c-.17-.46-.73-.72-1.19-.55-7.84,2.52-9.3,3.06-17.81,6.09-.53-1.45-.9-2.3-.92-2.36-.17-.46-.65-.68-1.17-.49l-13.82,5.03c-.47.17-.75.67-.58,1.13.02.06.34.93.83,2.45-2.56,1-4.41,1.74-8.05,3.2l-1.85.74c-.47.17-.73.73-.56,1.19l2.24,6.14c.19.52.73.72,1.19.55l1.92-.57c3.73-1.23,5.68-1.87,8.28-2.75.4.91.78,1.95,1.22,2.97-2.65,2.02-4.6,4.3-5.86,6.86-1.98,4.2-2.05,8.95-.17,14.11,3.48,9.57,12.35,13.69,22.11,10.27,8.28-2.95,12.94-7.27,15.5-12.6.51,2.5.66,4.55.68,4.61-.04.08-.02.14.03.25.04.12.16.27.34.4.18.13.48.22.71.13l9.27-1.86c.37-.07.7-.45.75-.86ZM169.19,437.83c-2.05.75-3.66.87-4.8.3-.96-.44-1.61-1.32-2.03-2.67-.51-1.59-.25-3.06.68-4.51,1.35,2.99,2.28,4.81,2.3,4.87.21.39.68.61,1.15.43l9.89-3.6c-2.05,2.39-4.53,4.14-7.2,5.18ZM178.45,429.93c-.28-1.15-.85-3.24-1.62-5.91,1.71-.23,3.15-.09,4.34.26-.64,2.07-1.62,3.94-2.72,5.65Z"/><path d="M227.99,437.14l-13.29-5.97c-.3-.16-.74-.12-.96.17-.27.26-6.31,6.92-10.17,18.83-3.69,11.45-1.44,18.16,7.09,21.24,7.38,2.61,13.31,2.26,13.55,2.24.37-.02.64-.28.69-.57l2.58-14.03c.06-.34-.16-.73-.53-.87-.05-.02-1.85-.68-3.23-2.17-.9-1-1.66-2.37.26-7.24,1.6-4.11,4.4-10.57,4.48-10.64.13-.36-.07-.8-.48-1Z"/><path d="M252.38,444.82l-9.92-2.35c-.21-.08-.46-.06-.61.03-.22.12-.34.29-.35.49-.03.09-1.79,9.98-3.68,16.41-1.89,6.43-5.52,16.36-5.55,16.45-.13.37.13.82.55.98l8.87,3.46c.37.14.82.04,1.01-.3.02-.05,4.28-7.26,7.15-16.58,2.82-9.35,3.23-17.66,3.21-17.77,0-.36-.28-.72-.67-.81Z"/><path d="M299.8,413.54c-.19-.03-6.08-.12-18.02,1.79-10.78,1.66-17.9,3.65-17.95,3.72-.48.14-.79.57-.71,1.05l1.41,6.64c.09.55.58.84,1.07.76.12-.02,9.56-1.77,17.71-2.87,8.17-1.04,16.94-1.43,17.01-1.44.26.02.48-.14.65-.29.15-.21.25-.42.27-.67l-.48-7.86c-.08-.49-.46-.86-.96-.84Z"/><path d="M312.38,450.29c-.11-.29-.39-.44-.66-.52-.27-.08-.57-.03-.8.13,0,0-1.12.87-2.36,1.02-.98.16-1.69.09-2.55-1.27-.78-1.31-1.05-3.27-1.06-3.33-.07-.43-.51-.79-.95-.78-.12.02-2.32.07-5.12.72-.19.03-.42.13-.67.17,2.88-3.23,6.31-8.42,5.37-14.14-.02-.12-.04-.24-.06-.37-1.13-5.69-9.31-7.4-24.27-5.05-11.15,1.72-19.6,4.8-19.67,4.82-.47.2-.72.62-.58,1.1l2.46,9.53c.14.48.63.77,1.12.69,0,0,3.6-.78,6.5-1.2h.06c4-.67,6.85-.96,7.28.85.34,1.69-1.88,5.06-5.68,8.44-3.53,3.09-7.55,5.5-7.61,5.57-.46.26-.57.78-.37,1.19l5.5,10.35c.19.4.66.58,1.09.51.24-.1,5.18-1.54,8.7-3.13,3.18-1.4,6.64-3.79,7.03-4.1.35-.18,2.58-1.24,4.57-1.76,1.32-.41,2.74-.64,3.54-.71.36.63.88,1.48,1.67,2.1,1.94,1.43,4.23,2.68,10.5,1.64,7.07-1.17,9.49-5.63,9.58-5.84.14-.27.16-.59.05-.82l-2.66-5.81Z"/><path d="M364,416.58c-.05,0-1.15-.24-3.06-.64.08-1.94.09-3.11.1-3.17.01-.45-.33-.78-.71-.84l-17.16-2.06c-.44-.07-.83.26-.9.7,0,.05-.13.82-.26,2.03-12-1.87-21.56-2.8-21.67-2.82-.22-.03-.46.04-.59.19-.19.14-.28.35-.31.57l-.64,6.99c-.07.44.27.82.71.89.11.02,10.78,1.4,21.35,3.05-.13.82-.25,1.63-.34,2.52-1.72-.88-3.76-1.59-6.01-1.94-7.54-1.18-15.85,2.16-17.19,10.78-1.37,8.78,3.04,15.21,11.55,16.71,2.69.47,5.02.34,7.01-.08-.41,1.89-.71,3.07-.71,3.13-.03.22.04.45.13.63.14.19.34.33.56.37l15.87,3.09c.39.06.81-.15.93-.53.06-.05,2.86-7.15,5.74-19.48.91-4.05,1.5-8.2,1.92-11.93,1.15.23,1.81.34,1.87.35.44.07.87-.2.94-.63l1.52-6.85c.03-.22.01-.45-.13-.64-.08-.18-.29-.32-.51-.36ZM338.42,436.71c-.5.65-1.21,1.26-2.04,1.13-1.43-.22-2.04-1.71-1.9-3.03.09-.94.56-1.81,1.25-2.26.39-.33.86-.43,1.3-.36,1.2.24,1.68,1.16,1.85,1.91-.14.87-.33,1.73-.46,2.61Z"/><path d="M372.67,429.47l2.33,6.38c.17.53.69.75,1.17.6.12-.04,9.22-3.09,17.14-5.32,7.94-2.17,16.57-3.78,16.64-3.8.26-.01.46-.21.6-.38.12-.23.18-.45.17-.7l-1.57-7.72c-.15-.47-.57-.79-1.07-.7-.2,0-6.04.73-17.59,4.3-10.44,3.15-17.21,6.12-17.26,6.2-.46.21-.7.67-.55,1.14Z"/><path d="M425.67,452.46c-.15-.28-.45-.38-.72-.42-.28-.04-.57.05-.77.24,0,0-.99,1.02-2.19,1.34-.95.3-1.66.33-2.7-.9-.96-1.19-1.49-3.09-1.51-3.15-.13-.41-.62-.71-1.05-.64-.12.04-2.29.4-4.97,1.43-.18.06-.4.19-.63.26,2.4-3.6,5.07-9.22,3.33-14.75-.04-.12-.07-.24-.11-.35-1.92-5.48-10.25-6.03-24.73-1.61-10.8,3.26-18.74,7.5-18.8,7.52-.44.27-.63.71-.42,1.17l3.77,9.1c.21.45.74.67,1.21.52,0,0,3.45-1.28,6.26-2.1l.06-.02c3.87-1.21,6.66-1.9,7.33-.17.58,1.63-1.15,5.28-4.44,9.15-3.07,3.55-6.71,6.5-6.75,6.58-.42.33-.45.85-.2,1.23l6.89,9.47c.25.37.74.48,1.15.35.22-.13,4.91-2.25,8.18-4.32,2.95-1.83,6.04-4.68,6.38-5.04.32-.23,2.38-1.59,4.28-2.38,1.25-.59,2.62-1.02,3.41-1.2.44.57,1.08,1.34,1.95,1.85,2.12,1.14,4.56,2.06,10.63.15,6.84-2.15,8.61-6.91,8.67-7.12.11-.29.07-.6-.06-.82l-3.45-5.38Z"/><path d="M439.78,376.54c-9.72-3.53-17.03-4.88-20.14-5.41l-1.48-.3.12.04c-.24-.08-.61-.14-.85-.02-.24.12-.49.29-.53.6l-1.77,6.63c-.18.53.12,1.02.61,1.12.06.02,5.69,1.65,9.17,2.83l.75.32c1.89.64,7.72,2.66,7.48,3.75-.29.88-5.22,1.82-11.28,1.87-.39,0-.81.25-.92.6l-1.59,4.74c-.12.35.02.72.25,1,1.24,1.2,2.74,2.81,3.94,4.51-5.77-2-10.95-2.05-14.71-.26-2.28,1.12-3.95,2.96-4.76,5.36-1.2,3.57-1.77,12.68,18.72,19.58,14.29,4.81,23.49,2.11,27.32-8.12.08-.23.14-.41.2-.58,2.12-6.31-.26-11.15-1.56-13.15,1.73-.85,4.96-3.02,6.63-7.99.04-.12.08-.23.12-.35,2.77-8.83-7.66-13.77-15.73-16.75ZM420.3,409.43c-2.42-.81-1.97-2.16-1.83-2.57.24-.7,1.51-1.18,3.23-.61,1.12.38,1.99,1.12,2.64,1.93-1.16,1.5-2.32,1.82-4.03,1.25Z"/><path d="M668.57,257.9c-72.13-14.54-141.28,26.64-154.44,91.98-13.17,65.33,34.63,130.08,106.76,144.61,72.13,14.54,141.28-26.64,154.44-91.98,13.17-65.33-34.63-130.08-106.76-144.61ZM538.46,354.25c5.17-25.66,21.47-46.57,43.73-59.79,4.78,14.72,8.98,35.83,5.37,60.42-4.91,33.45-21.87,56.93-33.27,69.6-14.46-20.47-20.85-45.32-15.83-70.22ZM626.43,470.21c-20.72-4.18-39.01-13.29-53.58-25.59,5.11-5.55,10.91-12.52,16.46-20.84,4.66,7.48,14.47,19.96,36.35,33.15,2.01,1.21,4.38,1.69,6.7,1.37,25.89-3.55,42.07-13.41,47.66-17.53,1.5,10.42,3.64,19.39,5.83,26.56-18.23,5.72-38.65,7.05-59.41,2.87ZM602.2,399.97c4.24-10.03,7.55-21.23,9.08-33.54.57-4.57.96-9.04,1.23-13.4l50.85,69.21c-6.73,5.43-15.52,10.1-26.73,11.64-2.32.32-4.69-.16-6.7-1.37-14.75-8.89-22.9-21.57-27.73-32.54ZM679.57,385.65c-.66,5.31-1.1,10.48-1.36,15.5l-52.72-71.76c6.84-5.75,15.92-10.79,27.64-12.4,2.32-.32,4.69.16,6.7,1.37,15.65,9.43,23.87,23.13,28.57,34.53-4.11,9.81-7.33,20.74-8.83,32.76ZM664.11,293.93c-2.01-1.21-4.38-1.69-6.7-1.37-24.68,3.38-40.54,12.51-46.81,16.92-1.47-9.74-3.48-18.23-5.57-25.19,18.24-5.73,38.67-7.07,59.44-2.88,20.93,4.22,39.37,13.47,54.02,25.97-5.16,5.53-11.21,12.68-17.03,21.37-4.2-7.19-13.77-20.6-37.35-34.81ZM752.44,397.37c-5.22,25.93-21.81,47.02-44.42,60.21-4.79-14.42-9.26-35.73-5.57-60.7,5.08-34.44,23.02-58.09,33.99-69.97,14.58,20.52,21.04,45.46,16,70.46Z"/><path d="M483.21,424.37c-.03-.58-.31-.96-.69-.97l-16.86-.52c-.39-.01-.73.34-.75.92l-.52,5.96c-.25,3.42-.23,6.04-.24,6.19-.02.51.31,1.03.69,1.04l17.63.54c.39.01.74-.41.76-1,0-.14.18-2.76.14-6.19l-.16-5.98Z"/><path d="M484.82,376.77l-18.59-.57c-.39-.01-.74.49-.76,1.07,0,.07-.48,9.24-.54,20.82-.01,11.51.05,20.47.05,20.55-.02.58.31,1.03.69,1.04l17,.52c.39.01.74-.41.75-1,0-.07.66-9.01,1.36-20.5.64-11.56.73-20.74.74-20.81.02-.58-.31-1.1-.69-1.11Z"/><rect x="517.65" y="118.5" width="185.19" height="135.09" rx="15.26" ry="15.26" transform="translate(-17.89 74.45) rotate(-6.88)"/><path class="cls-7" d="M360.87,514.16c10.27,4.05,11.72,5.83,18.4,6.74,8.11,1.11,15.1-.27,19.88-1.68l4.38-1.39c.51-.16,1-.38,1.45-.66l1.81-1.11.52-.29c2.08-1.02,4.43-2.22,6.83-3.58.92-.52,1.96-.79,3.01-.84,5.43-.25,11.01-1.27,16.72-3.06,14.94-4.69,25.27-13.87,31.62-23.47,1.29-1.95,3.46-3.13,5.79-3.06l9.78.3c.5.02.99.02,1.48.02,6.65,0,13.09-1.45,18.98-4.2,2.7-1.26,5.89-.65,7.86,1.59,25.43,28.86,61.01,50.29,102.73,58.7,12.68,2.56,25.29,3.78,37.7,3.78,81.56,0,153.55-53.1,169.17-130.6,12.57-62.38-14.66-124.33-64.97-162.6-2.03-1.55-3.02-4.14-2.45-6.64,1.53-6.65,1.92-13.59,1.08-20.56l-12.53-103.81c-1.91-15.84-9.88-29.99-22.45-39.85-12.57-9.86-28.21-14.24-44.05-12.33l-153.55,18.53c-13.04,1.57-24.59,7.26-33.53,15.6-1.39,1.29-3.26,1.93-5.14,1.75l-95.79-9.19c-3.43-.33-6.54,2.03-7.15,5.42l-13.52,74.74c-.66,3.63-4.14,6.02-7.77,5.33-8.76-1.66-18.89-3.33-29.7-4.69-32.51-4.11-60.54-.71-83.31,10.1-1.85.88-3.66,1.81-5.43,2.78-4.19,2.31-9.37-.46-9.78-5.23-.08-.89-.15-1.79-.23-2.68l-3.68-43.66c-.34-4.03-4.17-6.82-8.11-5.9l-42.67,9.94c-27.25,6.35-51.67,11.56-84.28,17.97l-36.63,7.2c-3.55.7-5.89,4.12-5.24,7.69l6.66,36.73c7.95,43.84,16.08,96.06,23.26,142.15,2.32,14.9,4.5,28.89,6.48,41.32l6.52,41c.35,2.21,2.45,3.7,4.65,3.29l2.66-.49c3-.55,6.02,1.01,7.25,3.8.44,1,.9,1.97,1.4,2.92.37.71.62,1.47.73,2.27.56,4.13,1.59,8.64,3.38,13.31,8.74,22.88,29.37,33.8,37.3,37.45l.82.32c7.36,2.23,18.1-1.44,24.69-1.44,3.08,0,4.52,11.42,8.3,12.71.29.2.59.39.89.59.3.2.61.39.9.57,1.6.89,3.21,1.77,4.81,2.66,1.03.51,2.13,1.03,3.3,1.53,1.19.51,2.33.96,3.43,1.36l.29.1c6.92,2.44,13.33,3.68,18.62,4.29.61.07,1.2.21,1.76.45.17.07.34.14.51.21l8.75,3.42.91.34c5.07,1.85,10.3,2.74,15.47,2.74,10.61,0,20.94-3.74,29.09-10.46.97-.8,2.15-1.28,3.4-1.41.75-.08,1.51-.18,2.26-.31l4.63-.76c.54-.09,1.06-.24,1.56-.46l2-.87.57-.21c2.43-.79,5.21-1.75,8.05-2.9.41-.17.85-.23,1.29-.18.67.08,10.24.64,17.98-.58,1.16-.18,1.83-.34,2.42-.45,2.64-.52,11.45-6.72,15.56-6.48,2.17.13,17.79,4.04,21.17,4.17,2.96.11,5.97,8.99,9.01,10.19ZM564.84,210.81l-4.57-37.9c-.26-2.16,1.28-4.13,3.45-4.39l87.64-10.58c2.16-.26,4.13,1.28,4.39,3.45l4.57,37.9c.26,2.16-1.28,4.13-3.45,4.39l-87.64,10.58c-2.16.26-4.13-1.28-4.39-3.45Z"/><path class="cls-8" d="M125.09,439.04c1.85,8.32,1.39,9.82,3.07,14.49,5.39,15,18.47,22.57,19.13,22.94,8.61,4.77,19.34,6.36,31.79,3.71.39-.32,1.27.44,1.27.53,4.83,8.55,12.74,14.24,20.81,17.15,9.09,3.68,15.2,2.24,21.62,5.2,13.8,7.07,30.34,7.96,40.03-6.19.04-.05.08-.1.13-.14,1.45-1.02,3.69.28,5.45-.04,7.58-.18,14.26-3.45,21.21-6.16.38-.15.77-.3,1.18-.33.41-.03.83.05,1.24.13,11.19,2.23,23.84.02,33.34-6.44,2.01-1.37,2.91-2.87,5.52-2.63,2.29.21,4.56.68,6.8,1.16,4.76,1.02,9.7,2.43,14.61,2.25,1.02-.04,2.05-.15,3.03-.44.95-.16,1.25.71,1.83,1.46,2.41,3.35,5.9,8.15,6.87,9.38,4.77,6.94,19.37,12.12,28.39,8.44,3.57-1.04,6.85-2.87,10.04-4.74,1.64-.96,3.26-1.94,4.92-2.87,1.26-.71,2.35-1.32,3.83-1.12,1.11.15,2.19.25,3.33.24,2.34-.02,4.67-.32,6.95-.82,4.83-1.06,9.47-2.99,13.75-5.47,7.01-4.06,15.12-10.53,16.99-18.88,1.29-1.72.26-6.4,2.72-6.52.09,0,.17.02.25.06,5.12,2.63,20.07,1.43,25.65,2.08.02,0,.03,0,.05,0,10.67.32,20.21-6.05,24.46-15.37.16-.35.63-.4.86-.08,47.12,67.8,148.32,100.65,226.17,52.8,96.38-53.56,88.55-195.06-6.22-246.82-.56-.34-.71-1.07-.33-1.6,5.72-8.21,8.21-18.09,7-28.08l-12.53-103.81c-2.17-21.72-23.65-38.61-45.28-35.53,0,0-153.55,18.53-153.55,18.53-13.19,1.17-22.54,9.6-30.02,18.42-.11.12-.26.19-.42.17-5.44-.52-95.7-9.18-95.7-9.18-2.81-.6-15.12,82.36-17.11,89.39-.08.27-.35.42-.62.34-44.92-13.44-136.96-25.78-161.17,32.98-.48,1.04-2.01.82-2.14-.32-3.02-26.1-5.62-56.43-7.82-83.22-.06-.68-.71-1.15-1.37-1l-27.38,6.38c-32.55,7.57-71.41,15.64-108.43,22.74-.6.12-1,.7-.89,1.3,15.01,73.99,24.76,157.32,39.03,231,.25,1.29-.04,1.88,3.09,1.34,1.84-.31,5.95-.98,5.95-.98l1.32,1.13c2.1,5.04,5.05,12.94,7.3,23.04ZM224.23,311.86c-.42-.25-.7-.69-.77-1.17-.07-.55-.15-1.09-.22-1.64.96,1.36,1.96,2.72,3.03,4.04l-2.03-1.23ZM235.8,415.69l-5.85-2.63c-.68-.31-.88-1.19-.39-1.75h0c.28-.33.72-.46,1.14-.35,2.03.56,4.08,1.1,6.17,1.64.91.23,1.43,1.17,1.15,2.07,0,.01,0,.02-.01.03-.29.93-1.32,1.4-2.21,1ZM512.34,285.2c-8.16-.73-16.44-1.62-24.1-2.56-.95-.12-1.59-1.02-1.38-1.96,2.46-11.06,5-22.21,7.56-33.34.41-1.77,2.98-1.64,3.19.17l.86,7.09h0c1.34,11.11,7.07,20.64,15.24,27.07l-1.37,3.52Z"/><path class="cls-2" d="M507.64,426.43c.92,1.43,8.98,14.69,9.62,15.93,16.5,31.91,62.11,54.45,98.88,61.86,11.21,2.26,22.36,3.34,33.32,3.34,71.17,0,133.84-45.79,147.33-112.74,11.9-59.04-17.84-117.72-70.04-149.66-2.96-1.81-3.9-5.73-2.05-8.67,4.41-7.02,6.54-15.54,5.47-24.4l-12.53-103.81c-2.48-20.54-21.21-35.24-41.74-32.75l-153.55,18.53c-11.6,1.4-21.34,7.99-27.16,17.16-.67,1.05-1.87,1.64-3.11,1.52l-91.61-8.79c-1.72-.17-3.28,1.02-3.59,2.72l-15.17,83.91c-.36,1.96-2.35,3.17-4.26,2.58-6.1-1.89-27.12-6.87-53.14-10.15-28.22-3.56-52.11-.83-70.98,8.13-16.6,7.88-28.57,20.51-34.85,36.42-1.28,3.25-6.02,2.67-6.42-.8-2.19-19.24-4.19-38.87-5.89-59l-1.84-21.82c-.17-2.02-2.09-3.42-4.07-2.96l-21.32,4.97c-27.5,6.41-52.14,11.66-85.03,18.13l-18.3,3.6c-1.78.35-2.95,2.07-2.63,3.85l3.33,18.35c8,44.08,16.15,96.42,23.34,142.6,2.32,14.91,4.5,28.91,6.48,41.34l3.68,23.11c.13.84.94.77,1.79.69,8.13-.72,7.41-.68,8.73,3.12s3.72,10.94,6.09,16.54c3.02,7.15,3.43,15.09,6.76,22.15,2.68,5.67,6.64,10.72,11.62,14.55,4.75,3.65,10.38,6.12,16.26,7.22,2.71.5,5.61,1.09,8.36.81,3.04-.3,6.09-1.26,9.17-.77,1.79.28,3.48,1.07,4.89,2.2,2.95,2.37,4.53,6.04,7.53,8.35,3.51,2.7,7.56,4.94,11.73,6.45l.15.05c5.78,2.04,11.05,2.93,15.08,3.3,1.93.18,3.79.72,5.57,1.51.29.13.59.25.89.37l8.79,3.44.45.17c2.59.95,5.26,1.4,7.9,1.4,3.2,0,5.77-.72,6.88-1.11,6.04-2.1,7.07-10.37,13.83-10.73,2.5-.13,4.99.48,7.49.4,4.14-.12,7.96-2.07,11.83-3.55,6.11-2.34,12.65-3.56,19.19-3.59,5.73-.02,11.74.81,16.95-1.58,3.64-1.67,6.44-4.72,10.1-6.35,4-1.77,8.31.29,12.35,1.08,2.31.45,4.62.89,6.93,1.35l.77.14c.6.1,1.49.21,2.59.26.31.01.62.02.62.02.21,0,.36,0,.37,0,1.06,0,9.78,3.78,10.52,4.8,0,0,.04.05.08.11.33.46.58.8.65.89.43.6,1.19,1.64,2.57,3.53.27.38.55.75.82,1.13,4.41,6.14,11.56,9.65,18.94,9.65,2.33,0,4.69-.35,6.99-1.08l2.55-.81.19-.12c.73-.45,1.49-.86,2.26-1.24,2.56-1.25,5.55-2.79,8.28-4.51l.04-.02c2.42-1.51,5.23-2.19,8.08-2.12,4.19.09,8.62-.61,13.39-2.11,13.07-4.1,20.45-13.65,23.02-21.02.03-.07.05-.14.07-.22,1.58-4.65,6.17-7.59,11.02-6.82.93.15,1.89.24,2.86.27l17.59.54c.24,0,.48.01.73.01,7.01,0,13.72-3.27,18.06-8.85.9-1.16,1.7-2.4,2.37-3.71.98-1.91,1.46-3.5,1.62-4.08.44-1.53.61-2.8.84-4.4.39-2.76,1.95-1.26,2.62-.23Z"/><g class="cls-9"><rect class="cls-7" x="45.83" y="111.43" width="768" height="460"/><rect class="cls-8" x="145.48" y="382.29" width="58.04" height="60.86" transform="translate(302.18 -16.8) rotate(39.47)"/><path class="cls-1" d="M523.14,124.71c3.62,15.09-37.83,35.33-91.13,56.25-61.25,24.04-138.14,49-180.27,68.11-25.22,11.44-93.87-15.97-127.43-3.53-40.27,14.92-43.96,67.54-48.21,49.85-7.79-32.44-39.75-184.33,105.48-219.2,145.23-34.87,333.77,16.08,341.56,48.52Z"/><path class="cls-8" d="M171.47,322.07c32.8,21,35.12,28.52,35.44,33.17,1.82,26.39-54.5,50.49-91.35,50.49-7.44,0-12.76-1.65-16.54-4.44-12.54-9.24-8.08-27.67-8.16-46.06-.19-46.68-31.28-66.95-21.16-75.74,14.96-13,83.47,30.85,101.77,42.56Z"/><path class="cls-8" d="M179.63,367.77c0,6.71,61.39,19.49,119.08,19.49s95.9-50.43,95.9-57.14-52.83,25.5-110.52,25.5-104.46,5.44-104.46,12.15Z"/><path class="cls-1" d="M938.99,430.75c8.07,33.61-94.85,87.15-229.87,119.57-135.03,32.42-251.03,31.46-259.1-2.15-6.04-25.15,49.63-82.59,134.8-112.86,28.68-10.19,74.03-.96,108.04-9.12,27.22-6.54,63.46-45.84,88.41-49.67,98.79-15.16,151.28,27.4,157.73,54.24Z"/><rect class="cls-1" x="184.2" y="441.6" width="69.81" height="69.81" transform="translate(-32.56 16.37) rotate(-3.98)"/><path class="cls-8" d="M786.63,314.77c2.57-5.53-48.16-41.94-100.43-66.25-52.28-24.31-106.22,1.15-108.79,6.68"/><rect class="cls-1" x="238.16" y="392.22" width="62.38" height="15.59" transform="translate(-45.98 35.15) rotate(-6.88)"/><polygon class="cls-1" points="395.27 357.59 453.71 350.53 457.84 377.26 398.31 382.76 395.27 357.59"/><rect class="cls-1" x="356.12" y="441.44" width="73.3" height="25.35" transform="translate(-97.51 107.54) rotate(-13.89)"/><polygon class="cls-8" points="348.72 443.6 329.72 438.26 335.89 406.9 339.16 381.76 364.65 388.28 348.72 443.6"/><path class="cls-8" d="M177.49,414.49l-13.29,4.45-10.15-23.94,15.74-6.67,8.68,24.15c.3.82-.14,1.73-.97,2.01Z"/><path class="cls-8" d="M499.45,398.73c-3.81,21.9-16.77,37.94-28.95,35.82-12.18-2.12-18.98-21.59-15.17-43.49s7.7-41.26,19.89-39.15c12.18,2.12,28.04,24.92,24.24,46.82Z"/><path class="cls-8" d="M252.38,444.82c0-11.62,36.25-14.22,45.68-14.22s17.06,9.42,17.06,21.03-25.38,28.71-34.8,28.71-27.93-23.91-27.93-35.53Z"/><polygon class="cls-1" points="138.22 393.84 193.42 373.4 191.24 384.33 141.66 402.82 138.22 393.84"/><polygon class="cls-1" points="312.57 387.03 370.79 395.7 363.35 405.23 311.1 396.9 312.57 387.03"/></g><g class="cls-4"><rect class="cls-6" x="484.24" y="74.17" width="301.07" height="166.67"/><path class="cls-5" d="M505.78,169.46l185.74,30.2c15.22,2.47,25.54,16.82,23.07,32.03l-.86,5.32c-2.34,14.39-15.36,24.55-29.89,23.33l-33.22-2.79c-1.5-.13-2.98-.37-4.44-.74l-126.65-15.98c-1.77-.44,2.7-14.85.88-14.94l-20.48-1.01c-16.63-.82-28.84-15.93-26.17-32.36h0c2.47-15.22,16.82-25.54,32.03-23.07Z"/></g><path class="cls-2" d="M561.19,129.25l.96,7.94c.03.22-.08.51-.36.63l-5.81,3.46c-10.63,6.26-19.44,10.72-19.53,10.78-.33.13-.77.05-.95-.25l-5.06-7.63c-.06-.08-.07-.17-.08-.26-.03-.27.08-.51.31-.67.1-.01,7.81-4.65,17.86-10.53-11.21-3.35-19.77-6.12-19.87-6.16-.26-.1-.43-.31-.45-.53-.01-.09-.03-.22.01-.32l1.79-4.92c.11-.33.47-.51.87-.42.1-.01,9.67,2.27,21.53,5.78l8.29,2.57c.3.1.47.31.5.53Z"/><path class="cls-2" d="M599.75,144.29l.48,4.02c.04.36-.25.71-.64.76-.05,0-6.26.98-14.13,1.93-7.82.94-14.08,1.47-14.18,1.48-.38.05-.71-.23-.75-.59l-.48-4.02c-.04-.36.21-.7.59-.75.1-.01,6.31-.99,14.13-1.93,7.87-.95,14.13-1.48,14.18-1.49.38-.05.76.23.8.58Z"/><path class="cls-2" d="M625.26,143.07c.04.36-.21.66-.64.71l-17.03,2.06c-.43.05-.76-.23-.8-.58,0-.04-1.19-7.82-2.08-17.67-.9-9.85-1.43-17.48-1.44-17.57,0-.36.26-.67.64-.71l15.59-1.88c.38-.05.75.18.79.54.01.09,1.5,7.56,2.93,17.39,1.42,9.79,2.08,17.63,2.04,17.72Z"/></svg>